<?xml version="1.0" encoding="iso-8859-1"?>
<!-- Generator: Adobe Illustrator 19.0.0, SVG Export Plug-In . SVG Version: 6.00 Build 0)  -->
<svg version="1.1" id="Capa_1" xmlns="http://www.w3.org/2000/svg" xmlns:xlink="http://www.w3.org/1999/xlink" x="0px" y="0px"
	 viewBox="0 0 512 512" fill="white" style="enable-background:new 0 0 512 512;" xml:space="preserve">
<g>
	<g>
		<path d="M497,482H376.08C455.331,439.551,512,355.351,512,256C512,115.03,396.95,0,256,0C115.03,0,0,115.05,0,256
			c0,140.97,115.05,256,256,256h241c8.284,0,15-6.716,15-15S505.284,482,497,482z M30,256C30,131.383,131.383,30,256,30
			s226,101.383,226,226S380.617,482,256,482S30,380.617,30,256z"/>
	</g>
</g>
<g>
	<g>
		<path d="M256,211c-24.813,0-45,20.187-45,45s20.187,45,45,45s45-20.187,45-45S280.813,211,256,211z M256,271
			c-8.271,0-15-6.729-15-15s6.729-15,15-15s15,6.729,15,15S264.271,271,256,271z"/>
	</g>
</g>
<g>
	<g>
		<path d="M172.9,219.925l-39.75-29.813c-13.752-10.314-31.847-11.946-47.223-4.258C70.551,193.542,61,208.997,61,226.188v59.625
			c0,17.19,9.551,32.645,24.927,40.333c15.204,7.603,33.318,6.171,47.223-4.258l39.75-29.813
			c11.463-8.597,18.038-21.746,18.038-36.075S184.364,228.522,172.9,219.925z M154.9,268.075l-39.75,29.813
			c-4.673,3.504-10.582,4.037-15.806,1.425c-5.225-2.612-8.344-7.659-8.344-13.5v-59.625c0-5.841,3.119-10.888,8.344-13.5
			c5.207-2.604,11.12-2.09,15.806,1.425l39.75,29.813c3.837,2.878,6.038,7.279,6.038,12.075
			C160.938,260.797,158.737,265.197,154.9,268.075z"/>
	</g>
</g>
<g>
	<g>
		<path d="M280.552,393.197l-16.07-47.017c-4.634-13.559-15.108-23.874-28.735-28.302c-13.629-4.427-28.165-2.238-39.883,6.007
			l-40.637,28.592c-14.06,9.892-21.203,26.597-18.643,43.596c2.561,16.999,14.307,30.858,30.656,36.17l56.707,18.425
			c16.431,5.34,34.062,0.939,46.062-11.243C282.072,427.177,286.112,409.464,280.552,393.197z M248.635,418.374
			c-4.099,4.161-9.863,5.567-15.417,3.764l-56.707-18.426c-5.555-1.805-9.391-6.331-10.261-12.106
			c-0.87-5.776,1.463-11.231,6.24-14.593l40.638-28.592c3.922-2.76,8.787-3.493,13.349-2.011c4.562,1.482,8.067,4.935,9.618,9.473
			l16.07,47.017C254.054,408.427,252.734,414.212,248.635,418.374z"/>
	</g>
</g>
<g>
	<g>
		<path d="M434.675,299.216c-7.922-15.256-23.53-24.537-40.707-24.311l-49.682,0.754c-14.327,0.217-27.374,6.991-35.796,18.583
			c-8.422,11.592-10.833,26.094-6.612,39.788l14.635,47.483c5.063,16.428,18.743,28.384,35.701,31.202
			c16.914,2.809,33.744-4.035,43.874-17.979l35.047-48.237C441.239,332.591,442.596,314.474,434.675,299.216z M406.863,328.866
			l-35.047,48.237c-3.434,4.726-8.924,6.973-14.686,6.018c-5.762-0.958-10.229-4.862-11.95-10.444l-14.635-47.482
			c-1.413-4.583-0.606-9.438,2.213-13.318c2.819-3.88,7.186-6.147,11.982-6.22l49.683-0.754c5.847-0.07,10.933,2.954,13.625,8.138
			C410.74,318.224,410.297,324.14,406.863,328.866z"/>
	</g>
</g>
<g>
	<g>
		<path d="M431.135,165.5l-35.047-48.237c-10.104-13.907-26.912-20.798-43.874-17.979c-16.958,2.818-30.638,14.774-35.701,31.202
			l-14.635,47.483c-4.221,13.693-1.811,28.195,6.612,39.788c8.423,11.593,21.468,18.366,35.796,18.583l49.682,0.754
			c0.236,0.004,0.469,0.005,0.705,0.005c16.908,0,32.19-9.269,40.002-24.316C442.596,197.526,441.239,179.408,431.135,165.5z
			 M408.049,198.96c-2.691,5.184-7.811,8.203-13.625,8.138l-49.682-0.754c-4.796-0.073-9.163-2.34-11.982-6.22
			c-2.82-3.88-3.627-8.735-2.214-13.318l14.635-47.483c1.721-5.582,6.188-9.486,11.95-10.444c5.765-0.959,11.253,1.293,14.686,6.018
			l35.047,48.237C410.298,187.86,410.74,193.776,408.049,198.96z"/>
	</g>
</g>
<g>
	<g>
		<path d="M270.009,72.574c-12.064-12.248-29.714-16.557-46.062-11.243L167.24,79.757c-16.349,5.312-28.096,19.171-30.656,36.17
			c-2.56,16.999,4.583,33.704,18.643,43.596l40.637,28.592c11.741,8.261,26.281,10.427,39.883,6.007
			c13.627-4.428,24.101-14.744,28.735-28.302l16.07-47.018C286.112,102.535,282.072,84.822,270.009,72.574z M252.164,109.1
			l-16.07,47.018c-1.551,4.538-5.057,7.991-9.618,9.473c-4.56,1.482-9.426,0.749-13.349-2.011l-40.637-28.592
			c-4.778-3.362-7.11-8.817-6.24-14.593s4.706-10.302,10.261-12.107l56.707-18.425c5.544-1.8,11.31-0.407,15.417,3.764
			C252.734,97.789,254.053,103.573,252.164,109.1z"/>
	</g>
</g>
<g>
</g>
<g>
</g>
<g>
</g>
<g>
</g>
<g>
</g>
<g>
</g>
<g>
</g>
<g>
</g>
<g>
</g>
<g>
</g>
<g>
</g>
<g>
</g>
<g>
</g>
<g>
</g>
<g>
</g>
</svg>
