<?xml version="1.0"?>
<svg fill="white" xmlns="http://www.w3.org/2000/svg" viewBox="0 0 64 64" width="512" height="512"><g id="Layer_8" data-name="Layer 8"><path d="M63,16H17.333l-.628-.471L63.167,7.655a1,1,0,0,0,.816-1.166L62.943.819a1,1,0,0,0-1.15-.8l-59,10.007A3,3,0,0,0,0,13V61a3,3,0,0,0,3,3H61a3,3,0,0,0,3-3V17A1,1,0,0,0,63,16Zm-1,6H57.135l3.333-4H62Zm-4.135-4-3.333,4h-2.4l3.333-4Zm-11.73,4,3.333-4h3.4l-3.333,4Zm.73-4-3.333,4h-2.4l3.333-4Zm-11.73,4,3.333-4h3.4l-3.333,4Zm.73-4-3.333,4h-2.4l3.333-4Zm-11.73,4,3.333-4h3.4l-3.333,4Zm.73-4-3.333,4h-2.4l3.333-4ZM2,18H16v4H2Zm16,0h1.865L18,20.238Zm-7.653-7.239,6.105-1.035,3.89,3.158-5.843.99ZM27.268,7.893l3.89,3.158-3.275.555-3.89-3.158Zm4.916-.833,3.889,3.158-2.29.388-3.89-3.158Zm5.9-1,3.89,3.159L38.7,9.773l-3.89-3.158ZM43,5.227l3.889,3.159L44.6,8.774l-3.89-3.158Zm5.9-1,3.889,3.158-3.274.555L45.625,4.783ZM53.815,3.4l3.89,3.158-2.291.388-3.89-3.158ZM22.967,12.439,19.078,9.281l2.29-.388,3.89,3.158ZM61.833,5.853l-1.5.255L56.44,2.95l4.714-.8ZM3,12H8.667L14,16H2V13A1,1,0,0,1,3,12ZM62,61a1,1,0,0,1-1,1H3a1,1,0,0,1-1-1V24H62Z"/><circle cx="5" cy="14" r="1"/><circle cx="5" cy="20" r="1"/><circle cx="13" cy="20" r="1"/><path d="M7,30a1,1,0,0,0,0,2H21V42H7a1,1,0,0,0,0,2H57a1,1,0,0,0,0-2H43V32H57a1,1,0,0,0,0-2ZM41,42H23V32H41Z"/><path d="M57,54H7a1,1,0,0,0,0,2H57a1,1,0,0,0,0-2Z"/><path d="M7,29h4a1,1,0,0,0,0-2H7a1,1,0,0,0,0,2Z"/><path d="M15,35a1,1,0,0,0,0-2H13a1,1,0,0,0,0,2Z"/><path d="M31,35h2a1,1,0,0,0,0-2H31a1,1,0,0,0,0,2Z"/><path d="M49,33a1,1,0,0,0,0,2h2a1,1,0,0,0,0-2Z"/><path d="M7,48h8a1,1,0,0,0,0-2H7a1,1,0,0,0,0,2Z"/><path d="M7,52h6a1,1,0,0,0,0-2H7a1,1,0,0,0,0,2Z"/><path d="M11,57H7a1,1,0,0,0,0,2h4a1,1,0,0,0,0-2Z"/><path d="M44,57H42a1,1,0,0,0,0,2h2a1,1,0,0,0,0-2Z"/><path d="M57,57H55a1,1,0,0,0,0,2h2a1,1,0,0,0,0-2Z"/></g></svg>
