<?xml version="1.0" encoding="UTF-8" standalone="no"?>
<!-- Created with Inkscape (http://www.inkscape.org/) -->

<svg
   version="1.1"
   id="svg537"
   xml:space="preserve"
   width="682.66669"
   height="682.66669"
   viewBox="0 0 682.66669 682.66669"
   xmlns="http://www.w3.org/2000/svg"
   xmlns:svg="http://www.w3.org/2000/svg"><defs
     id="defs541"><clipPath
       clipPathUnits="userSpaceOnUse"
       id="clipPath579"><path
         d="M 0,512 H 512 V 0 H 0 Z"
         id="path577" /></clipPath></defs><g
     id="g543"
     transform="matrix(1.3333333,0,0,-1.3333333,0,682.66667)"><g
       id="g545"
       transform="translate(115.0186,208.5791)"><path
         d="M 0,0 H 163.021"
         style="fill:none;stroke:white;stroke-width:15;stroke-linecap:round;stroke-linejoin:round;stroke-miterlimit:10;stroke-dasharray:none;stroke-opacity:1"
         id="path547" /></g><g
       id="g549"
       transform="translate(115.0186,154.9824)"><path
         d="M 0,0 H 197.178"
         style="fill:none;stroke:white;stroke-width:15;stroke-linecap:round;stroke-linejoin:round;stroke-miterlimit:10;stroke-dasharray:none;stroke-opacity:1"
         id="path551" /></g><g
       id="g553"
       transform="translate(115.0186,262.1753)"><path
         d="M 0,0 H 163.021"
         style="fill:none;stroke:white;stroke-width:15;stroke-linecap:round;stroke-linejoin:round;stroke-miterlimit:10;stroke-dasharray:none;stroke-opacity:1"
         id="path555" /></g><g
       id="g557"
       transform="translate(115.0186,315.772)"><path
         d="M 0,0 H 98.589"
         style="fill:none;stroke:white;stroke-width:15;stroke-linecap:round;stroke-linejoin:round;stroke-miterlimit:10;stroke-dasharray:none;stroke-opacity:1"
         id="path559" /></g><g
       id="g561"
       transform="translate(383.8003,213.062)"><path
         d="M 0,0 -65.821,31.324"
         style="fill:none;stroke:white;stroke-width:15;stroke-linecap:round;stroke-linejoin:round;stroke-miterlimit:10;stroke-dasharray:none;stroke-opacity:1"
         id="path563" /></g><g
       id="g565"
       transform="translate(415.2935,449.2671)"><path
         d="M 0,0 65.821,-31.324"
         style="fill:none;stroke:white;stroke-width:15;stroke-linecap:round;stroke-linejoin:round;stroke-miterlimit:10;stroke-dasharray:none;stroke-opacity:1"
         id="path567" /></g><g
       id="g569"
       transform="translate(350.9751,182.5894)"><path
         d="M 0,0 -35.887,17.081"
         style="fill:none;stroke:white;stroke-width:15;stroke-linecap:round;stroke-linejoin:round;stroke-miterlimit:10;stroke-dasharray:none;stroke-opacity:1"
         id="path571" /></g><g
       id="g573"><g
         id="g575"
         clip-path="url(#clipPath579)"><g
           id="g581"
           transform="translate(224.3794,57.0957)"><path
             d="m 0,0 h -42.18 -34.894 c -3.742,0 -3.317,0.142 -6.634,-1.561 l -69.874,-35.948 c -3.741,-1.39 -5.556,-0.341 -5.357,3.489 l 4.054,74.678 c 0.085,0.596 0.226,0.681 -0.171,1.022 -37.757,32.146 -61.823,79.983 -61.823,133.183 v 7.575 c 0,96.185 78.605,174.863 174.699,174.863 h 147.601 c 22.28,0 43.625,-4.228 63.269,-11.945 m 61.342,-40.687 c 30.926,-31.607 50.089,-74.791 50.089,-122.231 v -7.575 C 280.121,78.678 201.487,0 105.421,0 H 33.279"
             style="fill:none;stroke:white;stroke-width:15;stroke-linecap:round;stroke-linejoin:round;stroke-miterlimit:10;stroke-dasharray:none;stroke-opacity:1"
             id="path583" /></g><g
           id="g585"
           transform="translate(364.2129,341.7334)"><path
             d="m 0,0 65.934,138.829 c 5.386,11.349 20.098,15.747 32.655,9.76 l 10.063,-4.795 10.063,-4.766 c 12.558,-5.987 18.426,-20.174 13.04,-31.523 L 19.587,-128.671 -46.035,-189.617 c -2.891,-2.27 -5.924,-0.822 -5.981,2.866 l 5.783,89.403 31.578,66.478"
             style="fill:none;stroke:white;stroke-width:15;stroke-linecap:round;stroke-linejoin:round;stroke-miterlimit:10;stroke-dasharray:none;stroke-opacity:1"
             id="path587" /></g></g></g></g></svg>
