<?xml version="1.0" encoding="UTF-8"?>
<svg xmlns="http://www.w3.org/2000/svg" xmlns:xlink="http://www.w3.org/1999/xlink" version="1.1" id="Capa_1" x="0px" y="0px" viewBox="0 0 512 512" style="enable-background:new 0 0 512 512;" xml:space="preserve" width="512" height="512">
<g>
	
		<line style="fill:none;stroke:#ffffff;stroke-width:30;stroke-linecap:round;stroke-linejoin:round;stroke-miterlimit:10;" x1="336.333" y1="416.667" x2="336.333" y2="384.533"/>
	
		<line style="fill:none;stroke:#ffffff;stroke-width:30;stroke-linecap:round;stroke-linejoin:round;stroke-miterlimit:10;" x1="336.333" y1="320.267" x2="336.333" y2="288.133"/>
	
		<line style="fill:none;stroke:#ffffff;stroke-width:30;stroke-linecap:round;stroke-linejoin:round;stroke-miterlimit:10;" x1="336.333" y1="223.867" x2="336.333" y2="191.733"/>
	
		<line style="fill:none;stroke:#ffffff;stroke-width:30;stroke-linecap:round;stroke-linejoin:round;stroke-miterlimit:10;" x1="336.333" y1="127.467" x2="336.333" y2="95.333"/>
	<path style="fill:none;stroke:#ffffff;stroke-width:30;stroke-linecap:round;stroke-linejoin:round;stroke-miterlimit:10;" d="&#10;&#9;&#9;M497,191.733c-35.467,0-64.267,28.799-64.267,64.267s28.8,64.267,64.267,64.267v37.435c0,38.214-20.75,58.965-58.965,58.965H73.965&#10;&#9;&#9;C35.75,416.667,15,395.917,15,357.702v-37.435c35.467,0,64.267-28.799,64.267-64.267S50.467,191.733,15,191.733v-37.435&#10;&#9;&#9;c0-38.214,20.75-58.965,58.965-58.965h364.07c38.215,0,58.965,20.75,58.965,58.965V191.733z"/>
</g>















</svg>
