<svg id="Layer_1" fill="white" enable-background="new 0 0 512 512" height="512" viewBox="0 0 512 512" width="512" xmlns="http://www.w3.org/2000/svg"><path d="m470 13.947h-428c-23.159 0-42 18.841-42 42v300.126c0 23.159 18.841 42 42 42h29.531l.001 72.613c0 7.891 3.839 21.306 14.416 25.924 2.21.966 4.512 1.438 6.816 1.438 4.58 0 9.168-1.871 13.051-5.47l101.992-94.506h262.193c23.159 0 42-18.841 42-42v-300.126c0-23.158-18.841-41.999-42-41.999zm18 342.125c0 9.926-8.074 18-18 18h-266.897c-3.024 0-5.938 1.143-8.156 3.198l-99.414 92.116-.001-83.314c0-6.628-5.373-12-12-12h-41.532c-9.926 0-18-8.074-18-18v-300.126c0-9.925 8.074-18 18-18h428c9.926 0 18 8.075 18 18zm-82.492-241.217c-5.154-2.975-11.562-2.973-16.722.007l-61.484 35.498v-16.17c0-13.571-11.042-24.612-24.613-24.612h-179.94c-13.571 0-24.612 11.041-24.612 24.612v147.988c0 13.571 11.041 24.612 24.612 24.612h179.94c13.571 0 24.613-11.041 24.613-24.612v-16.169l61.483 35.498c2.583 1.491 5.478 2.236 8.371 2.236 2.89 0 5.777-.743 8.353-2.229 5.154-2.976 8.355-8.526 8.355-14.485v-157.688c0-5.959-3.202-11.51-8.356-14.486zm-102.206 167.324c0 .32-.292.612-.613.612h-179.94c-.32 0-.612-.292-.612-.612v-147.989c0-.321.292-.612.612-.612h179.94c.321 0 .613.292.613.612zm86.562-7.762-62.563-36.12v-60.224l62.563-36.12zm-129.504-76.625-68.688-39.657c-3.712-2.144-8.286-2.145-12 0-3.713 2.144-6 6.105-6 10.392v79.314c0 4.287 2.287 8.249 6 10.393 1.856 1.071 3.928 1.607 6 1.607 2.071 0 4.144-.536 6-1.607l68.688-39.658c3.713-2.144 6-6.105 6-10.392s-2.287-8.248-6-10.392zm-62.687 29.265v-37.745l32.688 18.873z"/></svg>